<mxfile host="www.draw.io" modified="2020-02-17T19:40:41.813Z" agent="Mozilla/5.0 (Windows NT 6.1; Win64; x64; rv:72.0) Gecko/20100101 Firefox/72.0" etag="zaWrJnexHmoKsZ686Q8S" version="12.7.0" type="github" pages="6">
  <diagram id="YaBBu2WnJ9wpjTV0d0c0" name="les_2_task1">
    <mxGraphModel dx="527" dy="891" grid="1" gridSize="10" guides="1" tooltips="1" connect="1" arrows="1" fold="1" page="1" pageScale="1" pageWidth="1169" pageHeight="1654" math="0" shadow="0">
      <root>
        <mxCell id="0"/>
        <mxCell id="1" parent="0"/>
        <mxCell id="Z_wT6rOMTIzCbRVd_gOU-10" style="edgeStyle=orthogonalEdgeStyle;rounded=0;orthogonalLoop=1;jettySize=auto;html=1;exitX=0.5;exitY=1;exitDx=0;exitDy=0;" edge="1" parent="1" source="82__e-P-q2fNU4EL_YBm-1" target="Z_wT6rOMTIzCbRVd_gOU-8">
          <mxGeometry relative="1" as="geometry"/>
        </mxCell>
        <mxCell id="82__e-P-q2fNU4EL_YBm-1" value="Начало" style="ellipse;whiteSpace=wrap;html=1;" parent="1" vertex="1">
          <mxGeometry x="610" y="50" width="120" height="80" as="geometry"/>
        </mxCell>
        <mxCell id="Z_wT6rOMTIzCbRVd_gOU-26" style="edgeStyle=orthogonalEdgeStyle;rounded=0;orthogonalLoop=1;jettySize=auto;html=1;exitX=0.5;exitY=1;exitDx=0;exitDy=0;entryX=0.5;entryY=0;entryDx=0;entryDy=0;" edge="1" parent="1" source="82__e-P-q2fNU4EL_YBm-10" target="Z_wT6rOMTIzCbRVd_gOU-1">
          <mxGeometry relative="1" as="geometry"/>
        </mxCell>
        <mxCell id="82__e-P-q2fNU4EL_YBm-10" value="Ввод операции&lt;br&gt;&lt;div&gt;oper одно из &#39;0&#39;, &#39;+&#39;, &#39;-&#39;, &#39;&#39;, &#39;/&#39;&lt;/div&gt;" style="shape=parallelogram;perimeter=parallelogramPerimeter;whiteSpace=wrap;html=1;" parent="1" vertex="1">
          <mxGeometry x="570" y="270" width="200" height="50" as="geometry"/>
        </mxCell>
        <mxCell id="Z_wT6rOMTIzCbRVd_gOU-6" style="edgeStyle=orthogonalEdgeStyle;rounded=0;orthogonalLoop=1;jettySize=auto;html=1;exitX=0;exitY=0.5;exitDx=0;exitDy=0;entryX=0.5;entryY=0;entryDx=0;entryDy=0;" edge="1" parent="1" source="Z_wT6rOMTIzCbRVd_gOU-1" target="Z_wT6rOMTIzCbRVd_gOU-5">
          <mxGeometry relative="1" as="geometry"/>
        </mxCell>
        <mxCell id="Z_wT6rOMTIzCbRVd_gOU-75" style="edgeStyle=orthogonalEdgeStyle;rounded=0;orthogonalLoop=1;jettySize=auto;html=1;exitX=1;exitY=0.5;exitDx=0;exitDy=0;entryX=1;entryY=0.5;entryDx=0;entryDy=0;" edge="1" parent="1" source="Z_wT6rOMTIzCbRVd_gOU-1" target="Z_wT6rOMTIzCbRVd_gOU-73">
          <mxGeometry relative="1" as="geometry">
            <Array as="points">
              <mxPoint x="990" y="400"/>
              <mxPoint x="990" y="1290"/>
            </Array>
          </mxGeometry>
        </mxCell>
        <mxCell id="Z_wT6rOMTIzCbRVd_gOU-1" value="oper = &#39;0&#39;" style="rhombus;whiteSpace=wrap;html=1;" vertex="1" parent="1">
          <mxGeometry x="620" y="360" width="80" height="80" as="geometry"/>
        </mxCell>
        <mxCell id="Z_wT6rOMTIzCbRVd_gOU-2" value="Да" style="text;html=1;align=center;verticalAlign=middle;resizable=0;points=[];autosize=1;" vertex="1" parent="1">
          <mxGeometry x="690" y="360" width="30" height="20" as="geometry"/>
        </mxCell>
        <mxCell id="Z_wT6rOMTIzCbRVd_gOU-3" value="Нет" style="text;html=1;align=center;verticalAlign=middle;resizable=0;points=[];autosize=1;" vertex="1" parent="1">
          <mxGeometry x="605" y="360" width="40" height="20" as="geometry"/>
        </mxCell>
        <mxCell id="Z_wT6rOMTIzCbRVd_gOU-13" style="edgeStyle=orthogonalEdgeStyle;rounded=0;orthogonalLoop=1;jettySize=auto;html=1;exitX=1;exitY=0.5;exitDx=0;exitDy=0;entryX=0.5;entryY=0;entryDx=0;entryDy=0;" edge="1" parent="1" source="Z_wT6rOMTIzCbRVd_gOU-5" target="Z_wT6rOMTIzCbRVd_gOU-7">
          <mxGeometry relative="1" as="geometry"/>
        </mxCell>
        <mxCell id="Z_wT6rOMTIzCbRVd_gOU-19" style="edgeStyle=orthogonalEdgeStyle;rounded=0;orthogonalLoop=1;jettySize=auto;html=1;exitX=0;exitY=0.5;exitDx=0;exitDy=0;" edge="1" parent="1" source="Z_wT6rOMTIzCbRVd_gOU-5" target="Z_wT6rOMTIzCbRVd_gOU-20">
          <mxGeometry relative="1" as="geometry">
            <mxPoint x="410" y="479.7058823529412" as="targetPoint"/>
          </mxGeometry>
        </mxCell>
        <mxCell id="Z_wT6rOMTIzCbRVd_gOU-5" value="oper = &#39;+&#39;" style="rhombus;whiteSpace=wrap;html=1;" vertex="1" parent="1">
          <mxGeometry x="480" y="440" width="80" height="80" as="geometry"/>
        </mxCell>
        <mxCell id="Z_wT6rOMTIzCbRVd_gOU-17" style="edgeStyle=orthogonalEdgeStyle;rounded=0;orthogonalLoop=1;jettySize=auto;html=1;exitX=0.5;exitY=1;exitDx=0;exitDy=0;" edge="1" parent="1" source="Z_wT6rOMTIzCbRVd_gOU-7" target="Z_wT6rOMTIzCbRVd_gOU-14">
          <mxGeometry relative="1" as="geometry"/>
        </mxCell>
        <mxCell id="Z_wT6rOMTIzCbRVd_gOU-7" value="result = a + b" style="rounded=0;whiteSpace=wrap;html=1;" vertex="1" parent="1">
          <mxGeometry x="587.5" y="500" width="75" height="37.5" as="geometry"/>
        </mxCell>
        <mxCell id="Z_wT6rOMTIzCbRVd_gOU-11" style="edgeStyle=orthogonalEdgeStyle;rounded=0;orthogonalLoop=1;jettySize=auto;html=1;exitX=0.5;exitY=1;exitDx=0;exitDy=0;" edge="1" parent="1" source="Z_wT6rOMTIzCbRVd_gOU-8" target="82__e-P-q2fNU4EL_YBm-10">
          <mxGeometry relative="1" as="geometry"/>
        </mxCell>
        <mxCell id="Z_wT6rOMTIzCbRVd_gOU-8" value="Ввод чисел&lt;br&gt;&lt;div&gt;a, b&lt;br&gt;&lt;/div&gt;" style="shape=parallelogram;perimeter=parallelogramPerimeter;whiteSpace=wrap;html=1;" vertex="1" parent="1">
          <mxGeometry x="580" y="160" width="200" height="60" as="geometry"/>
        </mxCell>
        <mxCell id="Z_wT6rOMTIzCbRVd_gOU-18" style="edgeStyle=orthogonalEdgeStyle;rounded=0;orthogonalLoop=1;jettySize=auto;html=1;" edge="1" parent="1" source="Z_wT6rOMTIzCbRVd_gOU-14">
          <mxGeometry relative="1" as="geometry">
            <mxPoint x="670" y="140" as="targetPoint"/>
            <Array as="points">
              <mxPoint x="920" y="584"/>
              <mxPoint x="920" y="140"/>
            </Array>
          </mxGeometry>
        </mxCell>
        <mxCell id="Z_wT6rOMTIzCbRVd_gOU-14" value="&lt;div&gt;Вывод&lt;/div&gt;&lt;div&gt;result&lt;br&gt;&lt;/div&gt;" style="shape=parallelogram;perimeter=parallelogramPerimeter;whiteSpace=wrap;html=1;" vertex="1" parent="1">
          <mxGeometry x="575.5" y="559.71" width="99" height="49.5" as="geometry"/>
        </mxCell>
        <mxCell id="Z_wT6rOMTIzCbRVd_gOU-23" style="edgeStyle=orthogonalEdgeStyle;rounded=0;orthogonalLoop=1;jettySize=auto;html=1;exitX=1;exitY=0.5;exitDx=0;exitDy=0;entryX=0;entryY=0.5;entryDx=0;entryDy=0;" edge="1" parent="1" source="Z_wT6rOMTIzCbRVd_gOU-20" target="Z_wT6rOMTIzCbRVd_gOU-21">
          <mxGeometry relative="1" as="geometry"/>
        </mxCell>
        <mxCell id="Z_wT6rOMTIzCbRVd_gOU-34" style="edgeStyle=orthogonalEdgeStyle;rounded=0;orthogonalLoop=1;jettySize=auto;html=1;exitX=0.5;exitY=1;exitDx=0;exitDy=0;entryX=0.5;entryY=0;entryDx=0;entryDy=0;" edge="1" parent="1" source="Z_wT6rOMTIzCbRVd_gOU-20" target="Z_wT6rOMTIzCbRVd_gOU-31">
          <mxGeometry relative="1" as="geometry"/>
        </mxCell>
        <mxCell id="Z_wT6rOMTIzCbRVd_gOU-20" value="oper = &#39;-&#39;" style="rhombus;whiteSpace=wrap;html=1;" vertex="1" parent="1">
          <mxGeometry x="410" y="630" width="80" height="80" as="geometry"/>
        </mxCell>
        <mxCell id="Z_wT6rOMTIzCbRVd_gOU-24" style="edgeStyle=orthogonalEdgeStyle;rounded=0;orthogonalLoop=1;jettySize=auto;html=1;exitX=0.5;exitY=1;exitDx=0;exitDy=0;entryX=0.5;entryY=0;entryDx=0;entryDy=0;" edge="1" parent="1" source="Z_wT6rOMTIzCbRVd_gOU-21" target="Z_wT6rOMTIzCbRVd_gOU-22">
          <mxGeometry relative="1" as="geometry"/>
        </mxCell>
        <mxCell id="Z_wT6rOMTIzCbRVd_gOU-21" value="result = a - b" style="rounded=0;whiteSpace=wrap;html=1;" vertex="1" parent="1">
          <mxGeometry x="572" y="650" width="75" height="37.5" as="geometry"/>
        </mxCell>
        <mxCell id="Z_wT6rOMTIzCbRVd_gOU-25" style="edgeStyle=orthogonalEdgeStyle;rounded=0;orthogonalLoop=1;jettySize=auto;html=1;exitX=1;exitY=0.75;exitDx=0;exitDy=0;" edge="1" parent="1" source="Z_wT6rOMTIzCbRVd_gOU-22">
          <mxGeometry relative="1" as="geometry">
            <mxPoint x="920" y="140" as="targetPoint"/>
          </mxGeometry>
        </mxCell>
        <mxCell id="Z_wT6rOMTIzCbRVd_gOU-22" value="&lt;div&gt;Вывод&lt;/div&gt;&lt;div&gt;result&lt;br&gt;&lt;/div&gt;" style="shape=parallelogram;perimeter=parallelogramPerimeter;whiteSpace=wrap;html=1;" vertex="1" parent="1">
          <mxGeometry x="560" y="709.71" width="99" height="49.5" as="geometry"/>
        </mxCell>
        <mxCell id="Z_wT6rOMTIzCbRVd_gOU-40" style="edgeStyle=orthogonalEdgeStyle;rounded=0;orthogonalLoop=1;jettySize=auto;html=1;exitX=1;exitY=0.5;exitDx=0;exitDy=0;entryX=0;entryY=0.5;entryDx=0;entryDy=0;" edge="1" parent="1" source="Z_wT6rOMTIzCbRVd_gOU-31" target="Z_wT6rOMTIzCbRVd_gOU-32">
          <mxGeometry relative="1" as="geometry"/>
        </mxCell>
        <mxCell id="Z_wT6rOMTIzCbRVd_gOU-56" style="edgeStyle=orthogonalEdgeStyle;rounded=0;orthogonalLoop=1;jettySize=auto;html=1;exitX=0.5;exitY=1;exitDx=0;exitDy=0;entryX=0.5;entryY=0;entryDx=0;entryDy=0;" edge="1" parent="1" source="Z_wT6rOMTIzCbRVd_gOU-31" target="Z_wT6rOMTIzCbRVd_gOU-51">
          <mxGeometry relative="1" as="geometry"/>
        </mxCell>
        <mxCell id="Z_wT6rOMTIzCbRVd_gOU-31" value="oper = &#39;*&#39;" style="rhombus;whiteSpace=wrap;html=1;" vertex="1" parent="1">
          <mxGeometry x="410" y="800" width="80" height="80" as="geometry"/>
        </mxCell>
        <mxCell id="Z_wT6rOMTIzCbRVd_gOU-41" style="edgeStyle=orthogonalEdgeStyle;rounded=0;orthogonalLoop=1;jettySize=auto;html=1;exitX=0.5;exitY=1;exitDx=0;exitDy=0;entryX=0.5;entryY=0;entryDx=0;entryDy=0;" edge="1" parent="1" source="Z_wT6rOMTIzCbRVd_gOU-32" target="Z_wT6rOMTIzCbRVd_gOU-33">
          <mxGeometry relative="1" as="geometry"/>
        </mxCell>
        <mxCell id="Z_wT6rOMTIzCbRVd_gOU-32" value="result = a * b" style="rounded=0;whiteSpace=wrap;html=1;" vertex="1" parent="1">
          <mxGeometry x="572" y="820" width="75" height="37.5" as="geometry"/>
        </mxCell>
        <mxCell id="Z_wT6rOMTIzCbRVd_gOU-42" style="edgeStyle=orthogonalEdgeStyle;rounded=0;orthogonalLoop=1;jettySize=auto;html=1;exitX=1;exitY=0.5;exitDx=0;exitDy=0;" edge="1" parent="1" source="Z_wT6rOMTIzCbRVd_gOU-33">
          <mxGeometry relative="1" as="geometry">
            <mxPoint x="920" y="640" as="targetPoint"/>
          </mxGeometry>
        </mxCell>
        <mxCell id="Z_wT6rOMTIzCbRVd_gOU-33" value="&lt;div&gt;Вывод&lt;/div&gt;&lt;div&gt;result&lt;br&gt;&lt;/div&gt;" style="shape=parallelogram;perimeter=parallelogramPerimeter;whiteSpace=wrap;html=1;" vertex="1" parent="1">
          <mxGeometry x="560" y="879.71" width="99" height="49.5" as="geometry"/>
        </mxCell>
        <mxCell id="Z_wT6rOMTIzCbRVd_gOU-35" value="Да" style="text;html=1;align=center;verticalAlign=middle;resizable=0;points=[];autosize=1;" vertex="1" parent="1">
          <mxGeometry x="557.5" y="440" width="30" height="20" as="geometry"/>
        </mxCell>
        <mxCell id="Z_wT6rOMTIzCbRVd_gOU-36" value="Нет" style="text;html=1;align=center;verticalAlign=middle;resizable=0;points=[];autosize=1;" vertex="1" parent="1">
          <mxGeometry x="450" y="440" width="40" height="20" as="geometry"/>
        </mxCell>
        <mxCell id="Z_wT6rOMTIzCbRVd_gOU-38" value="Да" style="text;html=1;align=center;verticalAlign=middle;resizable=0;points=[];autosize=1;" vertex="1" parent="1">
          <mxGeometry x="480" y="630" width="30" height="20" as="geometry"/>
        </mxCell>
        <mxCell id="Z_wT6rOMTIzCbRVd_gOU-39" value="Нет" style="text;html=1;align=center;verticalAlign=middle;resizable=0;points=[];autosize=1;" vertex="1" parent="1">
          <mxGeometry x="400" y="700" width="40" height="20" as="geometry"/>
        </mxCell>
        <mxCell id="Z_wT6rOMTIzCbRVd_gOU-49" value="Да" style="text;html=1;align=center;verticalAlign=middle;resizable=0;points=[];autosize=1;" vertex="1" parent="1">
          <mxGeometry x="470" y="800" width="30" height="20" as="geometry"/>
        </mxCell>
        <mxCell id="Z_wT6rOMTIzCbRVd_gOU-50" style="edgeStyle=orthogonalEdgeStyle;rounded=0;orthogonalLoop=1;jettySize=auto;html=1;exitX=1;exitY=0.5;exitDx=0;exitDy=0;entryX=0.5;entryY=0;entryDx=0;entryDy=0;" edge="1" parent="1" source="Z_wT6rOMTIzCbRVd_gOU-51" target="Z_wT6rOMTIzCbRVd_gOU-59">
          <mxGeometry relative="1" as="geometry"/>
        </mxCell>
        <mxCell id="Z_wT6rOMTIzCbRVd_gOU-69" style="edgeStyle=orthogonalEdgeStyle;rounded=0;orthogonalLoop=1;jettySize=auto;html=1;exitX=0;exitY=0.5;exitDx=0;exitDy=0;entryX=0.388;entryY=1;entryDx=0;entryDy=0;entryPerimeter=0;" edge="1" parent="1" source="Z_wT6rOMTIzCbRVd_gOU-51" target="Z_wT6rOMTIzCbRVd_gOU-70">
          <mxGeometry relative="1" as="geometry">
            <mxPoint x="320" y="990.2941176470588" as="targetPoint"/>
          </mxGeometry>
        </mxCell>
        <mxCell id="Z_wT6rOMTIzCbRVd_gOU-51" value="oper = &#39;/&#39;" style="rhombus;whiteSpace=wrap;html=1;" vertex="1" parent="1">
          <mxGeometry x="410" y="950" width="80" height="80" as="geometry"/>
        </mxCell>
        <mxCell id="Z_wT6rOMTIzCbRVd_gOU-52" style="edgeStyle=orthogonalEdgeStyle;rounded=0;orthogonalLoop=1;jettySize=auto;html=1;exitX=0.5;exitY=1;exitDx=0;exitDy=0;entryX=0.5;entryY=0;entryDx=0;entryDy=0;" edge="1" parent="1" source="Z_wT6rOMTIzCbRVd_gOU-53" target="Z_wT6rOMTIzCbRVd_gOU-54">
          <mxGeometry relative="1" as="geometry"/>
        </mxCell>
        <mxCell id="Z_wT6rOMTIzCbRVd_gOU-53" value="result = a / b" style="rounded=0;whiteSpace=wrap;html=1;" vertex="1" parent="1">
          <mxGeometry x="652" y="1040" width="75" height="37.5" as="geometry"/>
        </mxCell>
        <mxCell id="Z_wT6rOMTIzCbRVd_gOU-74" style="edgeStyle=orthogonalEdgeStyle;rounded=0;orthogonalLoop=1;jettySize=auto;html=1;exitX=1;exitY=0.5;exitDx=0;exitDy=0;entryX=0.5;entryY=0;entryDx=0;entryDy=0;" edge="1" parent="1" source="Z_wT6rOMTIzCbRVd_gOU-54" target="Z_wT6rOMTIzCbRVd_gOU-8">
          <mxGeometry relative="1" as="geometry">
            <Array as="points">
              <mxPoint x="920" y="1125"/>
              <mxPoint x="920" y="140"/>
              <mxPoint x="769" y="140"/>
              <mxPoint x="769" y="160"/>
            </Array>
          </mxGeometry>
        </mxCell>
        <mxCell id="Z_wT6rOMTIzCbRVd_gOU-54" value="&lt;div&gt;Вывод&lt;/div&gt;&lt;div&gt;result&lt;br&gt;&lt;/div&gt;" style="shape=parallelogram;perimeter=parallelogramPerimeter;whiteSpace=wrap;html=1;" vertex="1" parent="1">
          <mxGeometry x="640" y="1099.71" width="99" height="49.5" as="geometry"/>
        </mxCell>
        <mxCell id="Z_wT6rOMTIzCbRVd_gOU-55" value="Да" style="text;html=1;align=center;verticalAlign=middle;resizable=0;points=[];autosize=1;" vertex="1" parent="1">
          <mxGeometry x="470" y="950" width="30" height="20" as="geometry"/>
        </mxCell>
        <mxCell id="Z_wT6rOMTIzCbRVd_gOU-57" value="Нет" style="text;html=1;align=center;verticalAlign=middle;resizable=0;points=[];autosize=1;" vertex="1" parent="1">
          <mxGeometry x="400" y="870" width="40" height="20" as="geometry"/>
        </mxCell>
        <mxCell id="Z_wT6rOMTIzCbRVd_gOU-60" style="edgeStyle=orthogonalEdgeStyle;rounded=0;orthogonalLoop=1;jettySize=auto;html=1;exitX=1;exitY=0.5;exitDx=0;exitDy=0;entryX=0;entryY=0.5;entryDx=0;entryDy=0;" edge="1" parent="1" source="Z_wT6rOMTIzCbRVd_gOU-59" target="Z_wT6rOMTIzCbRVd_gOU-53">
          <mxGeometry relative="1" as="geometry"/>
        </mxCell>
        <mxCell id="Z_wT6rOMTIzCbRVd_gOU-64" style="edgeStyle=orthogonalEdgeStyle;rounded=0;orthogonalLoop=1;jettySize=auto;html=1;exitX=0;exitY=0.5;exitDx=0;exitDy=0;entryX=1;entryY=0.5;entryDx=0;entryDy=0;" edge="1" parent="1" source="Z_wT6rOMTIzCbRVd_gOU-59" target="Z_wT6rOMTIzCbRVd_gOU-63">
          <mxGeometry relative="1" as="geometry"/>
        </mxCell>
        <mxCell id="Z_wT6rOMTIzCbRVd_gOU-59" value="b != 0" style="rhombus;whiteSpace=wrap;html=1;" vertex="1" parent="1">
          <mxGeometry x="522.5" y="1014.21" width="65" height="65" as="geometry"/>
        </mxCell>
        <mxCell id="Z_wT6rOMTIzCbRVd_gOU-62" value="Да" style="text;html=1;align=center;verticalAlign=middle;resizable=0;points=[];autosize=1;" vertex="1" parent="1">
          <mxGeometry x="580" y="1010" width="30" height="20" as="geometry"/>
        </mxCell>
        <mxCell id="Z_wT6rOMTIzCbRVd_gOU-68" style="edgeStyle=orthogonalEdgeStyle;rounded=0;orthogonalLoop=1;jettySize=auto;html=1;exitX=0.25;exitY=0;exitDx=0;exitDy=0;" edge="1" parent="1" source="Z_wT6rOMTIzCbRVd_gOU-63">
          <mxGeometry relative="1" as="geometry">
            <mxPoint x="670" y="140" as="targetPoint"/>
            <Array as="points">
              <mxPoint x="219" y="140"/>
            </Array>
          </mxGeometry>
        </mxCell>
        <mxCell id="Z_wT6rOMTIzCbRVd_gOU-63" value="&lt;div&gt;Вывод&lt;/div&gt;Ошибка деления на ноль" style="shape=parallelogram;perimeter=parallelogramPerimeter;whiteSpace=wrap;html=1;" vertex="1" parent="1">
          <mxGeometry x="170" y="1070" width="197.32" height="70" as="geometry"/>
        </mxCell>
        <mxCell id="Z_wT6rOMTIzCbRVd_gOU-66" value="Нет" style="text;html=1;align=center;verticalAlign=middle;resizable=0;points=[];autosize=1;" vertex="1" parent="1">
          <mxGeometry x="482.5" y="1057.5" width="40" height="20" as="geometry"/>
        </mxCell>
        <mxCell id="Z_wT6rOMTIzCbRVd_gOU-72" style="edgeStyle=orthogonalEdgeStyle;rounded=0;orthogonalLoop=1;jettySize=auto;html=1;exitX=0.5;exitY=0;exitDx=0;exitDy=0;entryX=0;entryY=0.75;entryDx=0;entryDy=0;" edge="1" parent="1" source="Z_wT6rOMTIzCbRVd_gOU-70" target="Z_wT6rOMTIzCbRVd_gOU-8">
          <mxGeometry relative="1" as="geometry">
            <Array as="points">
              <mxPoint x="304" y="203"/>
            </Array>
          </mxGeometry>
        </mxCell>
        <mxCell id="Z_wT6rOMTIzCbRVd_gOU-70" value="&lt;div&gt;Вывод&lt;/div&gt;&lt;div&gt;Нет такой &lt;br&gt;&lt;/div&gt;&lt;div&gt;операции&lt;/div&gt;" style="shape=parallelogram;perimeter=parallelogramPerimeter;whiteSpace=wrap;html=1;" vertex="1" parent="1">
          <mxGeometry x="240" y="904.23" width="129" height="45.77" as="geometry"/>
        </mxCell>
        <mxCell id="Z_wT6rOMTIzCbRVd_gOU-73" value="Конец" style="ellipse;whiteSpace=wrap;html=1;" vertex="1" parent="1">
          <mxGeometry x="550" y="1250" width="120" height="80" as="geometry"/>
        </mxCell>
      </root>
    </mxGraphModel>
  </diagram>
  <diagram id="mPgqT0AFrsclIj7CpF9H" name="les_2_task2">
    <mxGraphModel dx="640" dy="1081" grid="1" gridSize="10" guides="1" tooltips="1" connect="1" arrows="1" fold="1" page="1" pageScale="1" pageWidth="826" pageHeight="1169" math="0" shadow="0">
      <root>
        <mxCell id="St0HZpNQQrFdOE8dVEdz-0"/>
        <mxCell id="St0HZpNQQrFdOE8dVEdz-1" parent="St0HZpNQQrFdOE8dVEdz-0"/>
        <mxCell id="St0HZpNQQrFdOE8dVEdz-4" style="edgeStyle=orthogonalEdgeStyle;rounded=0;orthogonalLoop=1;jettySize=auto;html=1;exitX=0.5;exitY=1;exitDx=0;exitDy=0;" parent="St0HZpNQQrFdOE8dVEdz-1" source="St0HZpNQQrFdOE8dVEdz-2" target="St0HZpNQQrFdOE8dVEdz-3" edge="1">
          <mxGeometry relative="1" as="geometry"/>
        </mxCell>
        <mxCell id="St0HZpNQQrFdOE8dVEdz-2" value="Начало" style="ellipse;whiteSpace=wrap;html=1;" parent="St0HZpNQQrFdOE8dVEdz-1" vertex="1">
          <mxGeometry x="352.12" y="110" width="120" height="80" as="geometry"/>
        </mxCell>
        <mxCell id="St0HZpNQQrFdOE8dVEdz-10" style="edgeStyle=orthogonalEdgeStyle;rounded=0;orthogonalLoop=1;jettySize=auto;html=1;entryX=0.5;entryY=0;entryDx=0;entryDy=0;" parent="St0HZpNQQrFdOE8dVEdz-1" source="St0HZpNQQrFdOE8dVEdz-3" target="St0HZpNQQrFdOE8dVEdz-8" edge="1">
          <mxGeometry relative="1" as="geometry"/>
        </mxCell>
        <mxCell id="St0HZpNQQrFdOE8dVEdz-3" value="&lt;div&gt;Ввод&lt;/div&gt;num" style="shape=parallelogram;perimeter=parallelogramPerimeter;whiteSpace=wrap;html=1;" parent="St0HZpNQQrFdOE8dVEdz-1" vertex="1">
          <mxGeometry x="352.12" y="240" width="120" height="60" as="geometry"/>
        </mxCell>
        <mxCell id="nz0hMrf9SQ6rELEC2FhI-1" style="edgeStyle=orthogonalEdgeStyle;rounded=0;orthogonalLoop=1;jettySize=auto;html=1;exitX=0.5;exitY=1;exitDx=0;exitDy=0;entryX=0.5;entryY=0;entryDx=0;entryDy=0;" edge="1" parent="St0HZpNQQrFdOE8dVEdz-1" source="St0HZpNQQrFdOE8dVEdz-8" target="nz0hMrf9SQ6rELEC2FhI-0">
          <mxGeometry relative="1" as="geometry"/>
        </mxCell>
        <mxCell id="St0HZpNQQrFdOE8dVEdz-8" value="&lt;div&gt;even = 0&lt;/div&gt;&lt;div&gt;odd = 0&lt;br&gt;&lt;/div&gt;" style="rounded=0;whiteSpace=wrap;html=1;" parent="St0HZpNQQrFdOE8dVEdz-1" vertex="1">
          <mxGeometry x="352" y="330" width="120" height="60" as="geometry"/>
        </mxCell>
        <mxCell id="St0HZpNQQrFdOE8dVEdz-13" value="Конец" style="ellipse;whiteSpace=wrap;html=1;" parent="St0HZpNQQrFdOE8dVEdz-1" vertex="1">
          <mxGeometry x="362" y="810" width="120" height="80" as="geometry"/>
        </mxCell>
        <mxCell id="nz0hMrf9SQ6rELEC2FhI-3" style="edgeStyle=orthogonalEdgeStyle;rounded=0;orthogonalLoop=1;jettySize=auto;html=1;exitX=1;exitY=0.5;exitDx=0;exitDy=0;entryX=0.5;entryY=0;entryDx=0;entryDy=0;" edge="1" parent="St0HZpNQQrFdOE8dVEdz-1" source="nz0hMrf9SQ6rELEC2FhI-0" target="nz0hMrf9SQ6rELEC2FhI-2">
          <mxGeometry relative="1" as="geometry"/>
        </mxCell>
        <mxCell id="nz0hMrf9SQ6rELEC2FhI-18" style="edgeStyle=orthogonalEdgeStyle;rounded=0;orthogonalLoop=1;jettySize=auto;html=1;exitX=0;exitY=0.5;exitDx=0;exitDy=0;entryX=0;entryY=0.5;entryDx=0;entryDy=0;" edge="1" parent="St0HZpNQQrFdOE8dVEdz-1" source="nz0hMrf9SQ6rELEC2FhI-0" target="nz0hMrf9SQ6rELEC2FhI-17">
          <mxGeometry relative="1" as="geometry"/>
        </mxCell>
        <mxCell id="nz0hMrf9SQ6rELEC2FhI-0" value="num &amp;gt; 0" style="rhombus;whiteSpace=wrap;html=1;" vertex="1" parent="St0HZpNQQrFdOE8dVEdz-1">
          <mxGeometry x="372" y="430" width="80" height="80" as="geometry"/>
        </mxCell>
        <mxCell id="nz0hMrf9SQ6rELEC2FhI-7" style="edgeStyle=orthogonalEdgeStyle;rounded=0;orthogonalLoop=1;jettySize=auto;html=1;exitX=1;exitY=0.5;exitDx=0;exitDy=0;entryX=0;entryY=0.5;entryDx=0;entryDy=0;" edge="1" parent="St0HZpNQQrFdOE8dVEdz-1" source="nz0hMrf9SQ6rELEC2FhI-2" target="nz0hMrf9SQ6rELEC2FhI-6">
          <mxGeometry relative="1" as="geometry"/>
        </mxCell>
        <mxCell id="nz0hMrf9SQ6rELEC2FhI-13" style="edgeStyle=orthogonalEdgeStyle;rounded=0;orthogonalLoop=1;jettySize=auto;html=1;exitX=0;exitY=0.5;exitDx=0;exitDy=0;entryX=1;entryY=0.5;entryDx=0;entryDy=0;" edge="1" parent="St0HZpNQQrFdOE8dVEdz-1" source="nz0hMrf9SQ6rELEC2FhI-2" target="nz0hMrf9SQ6rELEC2FhI-12">
          <mxGeometry relative="1" as="geometry"/>
        </mxCell>
        <mxCell id="nz0hMrf9SQ6rELEC2FhI-2" value="num % 10 % 2 == 0" style="rhombus;whiteSpace=wrap;html=1;" vertex="1" parent="St0HZpNQQrFdOE8dVEdz-1">
          <mxGeometry x="512" y="490" width="118" height="118" as="geometry"/>
        </mxCell>
        <mxCell id="nz0hMrf9SQ6rELEC2FhI-4" value="Да" style="text;html=1;align=center;verticalAlign=middle;resizable=0;points=[];autosize=1;" vertex="1" parent="St0HZpNQQrFdOE8dVEdz-1">
          <mxGeometry x="464" y="438" width="30" height="20" as="geometry"/>
        </mxCell>
        <mxCell id="nz0hMrf9SQ6rELEC2FhI-11" style="edgeStyle=orthogonalEdgeStyle;rounded=0;orthogonalLoop=1;jettySize=auto;html=1;exitX=0.5;exitY=0;exitDx=0;exitDy=0;entryX=0.5;entryY=0;entryDx=0;entryDy=0;" edge="1" parent="St0HZpNQQrFdOE8dVEdz-1" source="nz0hMrf9SQ6rELEC2FhI-6" target="nz0hMrf9SQ6rELEC2FhI-0">
          <mxGeometry relative="1" as="geometry"/>
        </mxCell>
        <mxCell id="nz0hMrf9SQ6rELEC2FhI-6" value="&lt;div&gt;even += 1&lt;/div&gt;&lt;div&gt;num //= 10&lt;br&gt;&lt;/div&gt;" style="rounded=0;whiteSpace=wrap;html=1;" vertex="1" parent="St0HZpNQQrFdOE8dVEdz-1">
          <mxGeometry x="680" y="526" width="92" height="46" as="geometry"/>
        </mxCell>
        <mxCell id="nz0hMrf9SQ6rELEC2FhI-14" style="edgeStyle=orthogonalEdgeStyle;rounded=0;orthogonalLoop=1;jettySize=auto;html=1;exitX=0.5;exitY=0;exitDx=0;exitDy=0;entryX=0.5;entryY=1;entryDx=0;entryDy=0;" edge="1" parent="St0HZpNQQrFdOE8dVEdz-1" source="nz0hMrf9SQ6rELEC2FhI-12" target="nz0hMrf9SQ6rELEC2FhI-0">
          <mxGeometry relative="1" as="geometry"/>
        </mxCell>
        <mxCell id="nz0hMrf9SQ6rELEC2FhI-12" value="&lt;div&gt;odd += 1&lt;/div&gt;&lt;div&gt;num //= 10&lt;br&gt;&lt;/div&gt;" style="rounded=0;whiteSpace=wrap;html=1;" vertex="1" parent="St0HZpNQQrFdOE8dVEdz-1">
          <mxGeometry x="390" y="590" width="92" height="46" as="geometry"/>
        </mxCell>
        <mxCell id="nz0hMrf9SQ6rELEC2FhI-15" value="Да" style="text;html=1;align=center;verticalAlign=middle;resizable=0;points=[];autosize=1;" vertex="1" parent="St0HZpNQQrFdOE8dVEdz-1">
          <mxGeometry x="630" y="520" width="30" height="20" as="geometry"/>
        </mxCell>
        <mxCell id="nz0hMrf9SQ6rELEC2FhI-16" value="Нет" style="text;html=1;align=center;verticalAlign=middle;resizable=0;points=[];autosize=1;" vertex="1" parent="St0HZpNQQrFdOE8dVEdz-1">
          <mxGeometry x="477" y="510" width="40" height="20" as="geometry"/>
        </mxCell>
        <mxCell id="nz0hMrf9SQ6rELEC2FhI-19" style="edgeStyle=orthogonalEdgeStyle;rounded=0;orthogonalLoop=1;jettySize=auto;html=1;exitX=0.5;exitY=1;exitDx=0;exitDy=0;entryX=0.5;entryY=0;entryDx=0;entryDy=0;" edge="1" parent="St0HZpNQQrFdOE8dVEdz-1" source="nz0hMrf9SQ6rELEC2FhI-17" target="St0HZpNQQrFdOE8dVEdz-13">
          <mxGeometry relative="1" as="geometry"/>
        </mxCell>
        <mxCell id="nz0hMrf9SQ6rELEC2FhI-17" value="&lt;div&gt;Вывод&lt;/div&gt;&lt;div&gt;odd&lt;/div&gt;&lt;div&gt;even&lt;br&gt;&lt;/div&gt;" style="shape=parallelogram;perimeter=parallelogramPerimeter;whiteSpace=wrap;html=1;" vertex="1" parent="St0HZpNQQrFdOE8dVEdz-1">
          <mxGeometry x="357" y="700" width="120" height="60" as="geometry"/>
        </mxCell>
        <mxCell id="nz0hMrf9SQ6rELEC2FhI-20" value="Нет" style="text;html=1;align=center;verticalAlign=middle;resizable=0;points=[];autosize=1;" vertex="1" parent="St0HZpNQQrFdOE8dVEdz-1">
          <mxGeometry x="332" y="438" width="40" height="20" as="geometry"/>
        </mxCell>
      </root>
    </mxGraphModel>
  </diagram>
  <diagram name="les_2_task3" id="MBJGjFVQZ27V-Q-dnGlg">
    <mxGraphModel dx="448" dy="757" grid="1" gridSize="10" guides="1" tooltips="1" connect="1" arrows="1" fold="1" page="1" pageScale="1" pageWidth="826" pageHeight="1169" math="0" shadow="0">
      <root>
        <mxCell id="oAW97T9yTcg694iFCILZ-0"/>
        <mxCell id="oAW97T9yTcg694iFCILZ-1" parent="oAW97T9yTcg694iFCILZ-0"/>
        <mxCell id="oAW97T9yTcg694iFCILZ-2" style="edgeStyle=orthogonalEdgeStyle;rounded=0;orthogonalLoop=1;jettySize=auto;html=1;exitX=0.5;exitY=1;exitDx=0;exitDy=0;" edge="1" parent="oAW97T9yTcg694iFCILZ-1" source="oAW97T9yTcg694iFCILZ-3" target="oAW97T9yTcg694iFCILZ-5">
          <mxGeometry relative="1" as="geometry"/>
        </mxCell>
        <mxCell id="oAW97T9yTcg694iFCILZ-3" value="Начало" style="ellipse;whiteSpace=wrap;html=1;" vertex="1" parent="oAW97T9yTcg694iFCILZ-1">
          <mxGeometry x="352.12" y="110" width="120" height="80" as="geometry"/>
        </mxCell>
        <mxCell id="oAW97T9yTcg694iFCILZ-4" style="edgeStyle=orthogonalEdgeStyle;rounded=0;orthogonalLoop=1;jettySize=auto;html=1;entryX=0.5;entryY=0;entryDx=0;entryDy=0;" edge="1" parent="oAW97T9yTcg694iFCILZ-1" source="oAW97T9yTcg694iFCILZ-5" target="oAW97T9yTcg694iFCILZ-7">
          <mxGeometry relative="1" as="geometry"/>
        </mxCell>
        <mxCell id="oAW97T9yTcg694iFCILZ-5" value="&lt;div&gt;Ввод&lt;/div&gt;num" style="shape=parallelogram;perimeter=parallelogramPerimeter;whiteSpace=wrap;html=1;" vertex="1" parent="oAW97T9yTcg694iFCILZ-1">
          <mxGeometry x="352.12" y="240" width="120" height="60" as="geometry"/>
        </mxCell>
        <mxCell id="oAW97T9yTcg694iFCILZ-6" style="edgeStyle=orthogonalEdgeStyle;rounded=0;orthogonalLoop=1;jettySize=auto;html=1;exitX=0.5;exitY=1;exitDx=0;exitDy=0;entryX=0.5;entryY=0;entryDx=0;entryDy=0;" edge="1" parent="oAW97T9yTcg694iFCILZ-1" source="oAW97T9yTcg694iFCILZ-7" target="oAW97T9yTcg694iFCILZ-11">
          <mxGeometry relative="1" as="geometry"/>
        </mxCell>
        <mxCell id="oAW97T9yTcg694iFCILZ-7" value="result = &#39;&#39;" style="rounded=0;whiteSpace=wrap;html=1;" vertex="1" parent="oAW97T9yTcg694iFCILZ-1">
          <mxGeometry x="352" y="330" width="120" height="60" as="geometry"/>
        </mxCell>
        <mxCell id="oAW97T9yTcg694iFCILZ-8" value="Конец" style="ellipse;whiteSpace=wrap;html=1;" vertex="1" parent="oAW97T9yTcg694iFCILZ-1">
          <mxGeometry x="362" y="810" width="120" height="80" as="geometry"/>
        </mxCell>
        <mxCell id="oAW97T9yTcg694iFCILZ-10" style="edgeStyle=orthogonalEdgeStyle;rounded=0;orthogonalLoop=1;jettySize=auto;html=1;exitX=0;exitY=0.5;exitDx=0;exitDy=0;entryX=0;entryY=0.5;entryDx=0;entryDy=0;" edge="1" parent="oAW97T9yTcg694iFCILZ-1" source="oAW97T9yTcg694iFCILZ-11" target="oAW97T9yTcg694iFCILZ-23">
          <mxGeometry relative="1" as="geometry">
            <Array as="points">
              <mxPoint x="320" y="470"/>
              <mxPoint x="320" y="605"/>
              <mxPoint x="369" y="605"/>
            </Array>
          </mxGeometry>
        </mxCell>
        <mxCell id="oAW97T9yTcg694iFCILZ-11" value="num &amp;gt; 0" style="rhombus;whiteSpace=wrap;html=1;" vertex="1" parent="oAW97T9yTcg694iFCILZ-1">
          <mxGeometry x="372" y="430" width="80" height="80" as="geometry"/>
        </mxCell>
        <mxCell id="oAW97T9yTcg694iFCILZ-29" style="edgeStyle=orthogonalEdgeStyle;rounded=0;orthogonalLoop=1;jettySize=auto;html=1;exitX=0.5;exitY=1;exitDx=0;exitDy=0;entryX=0;entryY=0.5;entryDx=0;entryDy=0;" edge="1" parent="oAW97T9yTcg694iFCILZ-1" source="oAW97T9yTcg694iFCILZ-11" target="oAW97T9yTcg694iFCILZ-19">
          <mxGeometry relative="1" as="geometry"/>
        </mxCell>
        <mxCell id="oAW97T9yTcg694iFCILZ-32" style="edgeStyle=orthogonalEdgeStyle;rounded=0;orthogonalLoop=1;jettySize=auto;html=1;exitX=1;exitY=0.5;exitDx=0;exitDy=0;entryX=0;entryY=0.5;entryDx=0;entryDy=0;" edge="1" parent="oAW97T9yTcg694iFCILZ-1" source="oAW97T9yTcg694iFCILZ-19" target="oAW97T9yTcg694iFCILZ-30">
          <mxGeometry relative="1" as="geometry"/>
        </mxCell>
        <mxCell id="oAW97T9yTcg694iFCILZ-19" value="result += str(num % 10)" style="rounded=0;whiteSpace=wrap;html=1;" vertex="1" parent="oAW97T9yTcg694iFCILZ-1">
          <mxGeometry x="477" y="550" width="92" height="46" as="geometry"/>
        </mxCell>
        <mxCell id="oAW97T9yTcg694iFCILZ-22" style="edgeStyle=orthogonalEdgeStyle;rounded=0;orthogonalLoop=1;jettySize=auto;html=1;exitX=0.5;exitY=1;exitDx=0;exitDy=0;entryX=0.5;entryY=0;entryDx=0;entryDy=0;" edge="1" parent="oAW97T9yTcg694iFCILZ-1" source="oAW97T9yTcg694iFCILZ-23" target="oAW97T9yTcg694iFCILZ-8">
          <mxGeometry relative="1" as="geometry"/>
        </mxCell>
        <mxCell id="oAW97T9yTcg694iFCILZ-23" value="&lt;div&gt;Вывод&lt;/div&gt;&lt;div&gt;result&lt;br&gt;&lt;/div&gt;" style="shape=parallelogram;perimeter=parallelogramPerimeter;whiteSpace=wrap;html=1;" vertex="1" parent="oAW97T9yTcg694iFCILZ-1">
          <mxGeometry x="357" y="700" width="120" height="60" as="geometry"/>
        </mxCell>
        <mxCell id="oAW97T9yTcg694iFCILZ-24" value="Нет" style="text;html=1;align=center;verticalAlign=middle;resizable=0;points=[];autosize=1;" vertex="1" parent="oAW97T9yTcg694iFCILZ-1">
          <mxGeometry x="332" y="438" width="40" height="20" as="geometry"/>
        </mxCell>
        <mxCell id="oAW97T9yTcg694iFCILZ-27" value="Да" style="text;html=1;align=center;verticalAlign=middle;resizable=0;points=[];autosize=1;" vertex="1" parent="oAW97T9yTcg694iFCILZ-1">
          <mxGeometry x="422" y="530" width="30" height="20" as="geometry"/>
        </mxCell>
        <mxCell id="oAW97T9yTcg694iFCILZ-33" style="edgeStyle=orthogonalEdgeStyle;rounded=0;orthogonalLoop=1;jettySize=auto;html=1;exitX=0.5;exitY=0;exitDx=0;exitDy=0;entryX=1;entryY=0.5;entryDx=0;entryDy=0;" edge="1" parent="oAW97T9yTcg694iFCILZ-1" source="oAW97T9yTcg694iFCILZ-30" target="oAW97T9yTcg694iFCILZ-11">
          <mxGeometry relative="1" as="geometry">
            <mxPoint x="520" y="470" as="targetPoint"/>
            <Array as="points">
              <mxPoint x="650" y="550"/>
              <mxPoint x="650" y="470"/>
            </Array>
          </mxGeometry>
        </mxCell>
        <mxCell id="oAW97T9yTcg694iFCILZ-30" value="num // 10" style="rounded=0;whiteSpace=wrap;html=1;" vertex="1" parent="oAW97T9yTcg694iFCILZ-1">
          <mxGeometry x="610" y="550" width="92" height="46" as="geometry"/>
        </mxCell>
      </root>
    </mxGraphModel>
  </diagram>
  <diagram id="UaP6BT2xlU4XX5Bij95w" name="les_1_task3">
        <mxGraphModel dx="448" dy="757" grid="1" gridSize="10" guides="1" tooltips="1" connect="1" arrows="1" fold="1" page="1" pageScale="1" pageWidth="826" pageHeight="1169" math="0" shadow="0">
            <root>
                <mxCell id="j7mpf0ukL9SEayOR3bIo-0"/>
                <mxCell id="j7mpf0ukL9SEayOR3bIo-1" parent="j7mpf0ukL9SEayOR3bIo-0"/>
                <mxCell id="j7mpf0ukL9SEayOR3bIo-4" style="edgeStyle=orthogonalEdgeStyle;rounded=0;orthogonalLoop=1;jettySize=auto;html=1;exitX=0.5;exitY=1;exitDx=0;exitDy=0;entryX=0.5;entryY=0;entryDx=0;entryDy=0;" edge="1" parent="j7mpf0ukL9SEayOR3bIo-1" source="j7mpf0ukL9SEayOR3bIo-2" target="j7mpf0ukL9SEayOR3bIo-3">
                    <mxGeometry relative="1" as="geometry"/>
                  </mxCell>
                <mxCell id="j7mpf0ukL9SEayOR3bIo-2" value="Начало" style="ellipse;whiteSpace=wrap;html=1;" vertex="1" parent="j7mpf0ukL9SEayOR3bIo-1">
                    <mxGeometry x="353" y="80" width="120" height="80" as="geometry"/>
                  </mxCell>
                <mxCell id="j7mpf0ukL9SEayOR3bIo-6" style="edgeStyle=orthogonalEdgeStyle;rounded=0;orthogonalLoop=1;jettySize=auto;html=1;exitX=0.5;exitY=1;exitDx=0;exitDy=0;entryX=0.5;entryY=0;entryDx=0;entryDy=0;" edge="1" parent="j7mpf0ukL9SEayOR3bIo-1" source="j7mpf0ukL9SEayOR3bIo-3" target="j7mpf0ukL9SEayOR3bIo-20">
                    <mxGeometry relative="1" as="geometry">
                        <mxPoint x="413" y="310" as="targetPoint"/>
                      </mxGeometry>
                  </mxCell>
                <mxCell id="j7mpf0ukL9SEayOR3bIo-3" value="&lt;div&gt;Ввод&lt;/div&gt;&lt;div&gt;a, b&lt;br&gt;&lt;/div&gt;" style="shape=parallelogram;perimeter=parallelogramPerimeter;whiteSpace=wrap;html=1;" vertex="1" parent="j7mpf0ukL9SEayOR3bIo-1">
                    <mxGeometry x="353" y="210" width="120" height="60" as="geometry"/>
                  </mxCell>
                <mxCell id="j7mpf0ukL9SEayOR3bIo-31" style="edgeStyle=orthogonalEdgeStyle;rounded=0;orthogonalLoop=1;jettySize=auto;html=1;exitX=0.5;exitY=1;exitDx=0;exitDy=0;" edge="1" parent="j7mpf0ukL9SEayOR3bIo-1" source="j7mpf0ukL9SEayOR3bIo-14">
                    <mxGeometry relative="1" as="geometry">
                        <mxPoint x="410" y="760" as="targetPoint"/>
                      </mxGeometry>
                  </mxCell>
                <mxCell id="j7mpf0ukL9SEayOR3bIo-14" value="&lt;div&gt;Вывод&lt;/div&gt;&lt;div&gt;random.float(a,b)&lt;br&gt;&lt;/div&gt;" style="shape=parallelogram;perimeter=parallelogramPerimeter;whiteSpace=wrap;html=1;" vertex="1" parent="j7mpf0ukL9SEayOR3bIo-1">
                    <mxGeometry x="280" y="550" width="157" height="60" as="geometry"/>
                  </mxCell>
                <mxCell id="j7mpf0ukL9SEayOR3bIo-32" style="edgeStyle=orthogonalEdgeStyle;rounded=0;orthogonalLoop=1;jettySize=auto;html=1;exitX=0.5;exitY=1;exitDx=0;exitDy=0;entryX=0.5;entryY=0;entryDx=0;entryDy=0;" edge="1" parent="j7mpf0ukL9SEayOR3bIo-1" source="j7mpf0ukL9SEayOR3bIo-15" target="j7mpf0ukL9SEayOR3bIo-18">
                    <mxGeometry relative="1" as="geometry"/>
                  </mxCell>
                <mxCell id="j7mpf0ukL9SEayOR3bIo-15" value="&lt;div&gt;Вывод&lt;/div&gt;&lt;div&gt;random.int(a,b)&lt;/div&gt;" style="shape=parallelogram;perimeter=parallelogramPerimeter;whiteSpace=wrap;html=1;" vertex="1" parent="j7mpf0ukL9SEayOR3bIo-1">
                    <mxGeometry x="495.75" y="450" width="165.5" height="60" as="geometry"/>
                  </mxCell>
                <mxCell id="j7mpf0ukL9SEayOR3bIo-19" style="edgeStyle=orthogonalEdgeStyle;rounded=0;orthogonalLoop=1;jettySize=auto;html=1;exitX=0.5;exitY=1;exitDx=0;exitDy=0;" edge="1" parent="j7mpf0ukL9SEayOR3bIo-1" target="j7mpf0ukL9SEayOR3bIo-18">
                    <mxGeometry relative="1" as="geometry">
                        <mxPoint x="413" y="720" as="sourcePoint"/>
                      </mxGeometry>
                  </mxCell>
                <mxCell id="j7mpf0ukL9SEayOR3bIo-18" value="Конец" style="ellipse;whiteSpace=wrap;html=1;" vertex="1" parent="j7mpf0ukL9SEayOR3bIo-1">
                    <mxGeometry x="353" y="760" width="120" height="80" as="geometry"/>
                  </mxCell>
                <mxCell id="j7mpf0ukL9SEayOR3bIo-21" value="a" style="edgeStyle=orthogonalEdgeStyle;rounded=0;orthogonalLoop=1;jettySize=auto;html=1;exitX=1;exitY=0.5;exitDx=0;exitDy=0;entryX=0.5;entryY=0;entryDx=0;entryDy=0;" edge="1" parent="j7mpf0ukL9SEayOR3bIo-1" source="j7mpf0ukL9SEayOR3bIo-20" target="j7mpf0ukL9SEayOR3bIo-15">
                    <mxGeometry relative="1" as="geometry"/>
                  </mxCell>
                <mxCell id="j7mpf0ukL9SEayOR3bIo-22" value="НЕТ" style="text;html=1;align=center;verticalAlign=middle;resizable=0;points=[];labelBackgroundColor=#ffffff;" vertex="1" connectable="0" parent="j7mpf0ukL9SEayOR3bIo-21">
                    <mxGeometry x="-0.1485" y="-4" relative="1" as="geometry">
                        <mxPoint x="-73" y="-34" as="offset"/>
                      </mxGeometry>
                  </mxCell>
                <mxCell id="j7mpf0ukL9SEayOR3bIo-25" style="edgeStyle=orthogonalEdgeStyle;rounded=0;orthogonalLoop=1;jettySize=auto;html=1;exitX=0;exitY=0.5;exitDx=0;exitDy=0;entryX=0.5;entryY=0;entryDx=0;entryDy=0;" edge="1" parent="j7mpf0ukL9SEayOR3bIo-1" source="j7mpf0ukL9SEayOR3bIo-20" target="j7mpf0ukL9SEayOR3bIo-24">
                    <mxGeometry relative="1" as="geometry"/>
                  </mxCell>
                <mxCell id="j7mpf0ukL9SEayOR3bIo-20" value="a &amp;lt;&amp;gt; char" style="rhombus;whiteSpace=wrap;html=1;" vertex="1" parent="j7mpf0ukL9SEayOR3bIo-1">
                    <mxGeometry x="370" y="330" width="100" height="100" as="geometry"/>
                  </mxCell>
                <mxCell id="j7mpf0ukL9SEayOR3bIo-23" value="ДА" style="text;html=1;align=center;verticalAlign=middle;resizable=0;points=[];labelBackgroundColor=#ffffff;" vertex="1" connectable="0" parent="j7mpf0ukL9SEayOR3bIo-1">
                    <mxGeometry x="430" y="380" as="geometry">
                        <mxPoint x="-73" y="-34" as="offset"/>
                      </mxGeometry>
                  </mxCell>
                <mxCell id="j7mpf0ukL9SEayOR3bIo-28" style="edgeStyle=orthogonalEdgeStyle;rounded=0;orthogonalLoop=1;jettySize=auto;html=1;exitX=1;exitY=0.5;exitDx=0;exitDy=0;entryX=0.548;entryY=-0.033;entryDx=0;entryDy=0;entryPerimeter=0;" edge="1" parent="j7mpf0ukL9SEayOR3bIo-1" source="j7mpf0ukL9SEayOR3bIo-24" target="j7mpf0ukL9SEayOR3bIo-14">
                    <mxGeometry relative="1" as="geometry"/>
                  </mxCell>
                <mxCell id="j7mpf0ukL9SEayOR3bIo-29" style="edgeStyle=orthogonalEdgeStyle;rounded=0;orthogonalLoop=1;jettySize=auto;html=1;exitX=0;exitY=0.5;exitDx=0;exitDy=0;entryX=0.5;entryY=0;entryDx=0;entryDy=0;" edge="1" parent="j7mpf0ukL9SEayOR3bIo-1" source="j7mpf0ukL9SEayOR3bIo-24" target="j7mpf0ukL9SEayOR3bIo-26">
                    <mxGeometry relative="1" as="geometry"/>
                  </mxCell>
                <mxCell id="j7mpf0ukL9SEayOR3bIo-24" value="a содержит символ &#39;.&#39;" style="rhombus;whiteSpace=wrap;html=1;" vertex="1" parent="j7mpf0ukL9SEayOR3bIo-1">
                    <mxGeometry x="200" y="420" width="100" height="100" as="geometry"/>
                  </mxCell>
                <mxCell id="j7mpf0ukL9SEayOR3bIo-30" style="edgeStyle=orthogonalEdgeStyle;rounded=0;orthogonalLoop=1;jettySize=auto;html=1;exitX=0.5;exitY=1;exitDx=0;exitDy=0;entryX=0.5;entryY=0;entryDx=0;entryDy=0;" edge="1" parent="j7mpf0ukL9SEayOR3bIo-1" source="j7mpf0ukL9SEayOR3bIo-26" target="j7mpf0ukL9SEayOR3bIo-18">
                    <mxGeometry relative="1" as="geometry"/>
                  </mxCell>
                <mxCell id="j7mpf0ukL9SEayOR3bIo-26" value="Вывод&lt;div&gt;&lt;div&gt;random.char(a,b)&lt;/div&gt;&lt;/div&gt;" style="shape=parallelogram;perimeter=parallelogramPerimeter;whiteSpace=wrap;html=1;" vertex="1" parent="j7mpf0ukL9SEayOR3bIo-1">
                    <mxGeometry x="50" y="554" width="165.5" height="60" as="geometry"/>
                  </mxCell>
                <mxCell id="j7mpf0ukL9SEayOR3bIo-33" value="ДА" style="text;html=1;align=center;verticalAlign=middle;resizable=0;points=[];autosize=1;" vertex="1" parent="j7mpf0ukL9SEayOR3bIo-1">
                    <mxGeometry x="289" y="431" width="30" height="20" as="geometry"/>
                  </mxCell>
                <mxCell id="j7mpf0ukL9SEayOR3bIo-38" value="НЕТ" style="text;html=1;align=center;verticalAlign=middle;resizable=0;points=[];autosize=1;" vertex="1" parent="j7mpf0ukL9SEayOR3bIo-1">
                    <mxGeometry x="160" y="431" width="40" height="20" as="geometry"/>
                  </mxCell>
              </root>
          </mxGraphModel>
      </diagram>
  <diagram id="h3KA-UDxc-3o0s80E1Ag" name="les_1_task4">
        <mxGraphModel dx="1422" dy="769" grid="1" gridSize="10" guides="1" tooltips="1" connect="1" arrows="1" fold="1" page="1" pageScale="1" pageWidth="826" pageHeight="1169" math="0" shadow="0">
            <root>
                <mxCell id="ZRub3j6lRQqntSZlmvJg-0"/>
                <mxCell id="ZRub3j6lRQqntSZlmvJg-1" parent="ZRub3j6lRQqntSZlmvJg-0"/>
                <mxCell id="OtZh_rt4SisW76x3UQaW-2" style="edgeStyle=orthogonalEdgeStyle;rounded=0;orthogonalLoop=1;jettySize=auto;html=1;exitX=0.5;exitY=1;exitDx=0;exitDy=0;entryX=0.5;entryY=0;entryDx=0;entryDy=0;" edge="1" parent="ZRub3j6lRQqntSZlmvJg-1" source="OtZh_rt4SisW76x3UQaW-0" target="OtZh_rt4SisW76x3UQaW-1">
                    <mxGeometry relative="1" as="geometry"/>
                  </mxCell>
                <mxCell id="OtZh_rt4SisW76x3UQaW-0" value="Начало" style="ellipse;whiteSpace=wrap;html=1;" vertex="1" parent="ZRub3j6lRQqntSZlmvJg-1">
                    <mxGeometry x="353" y="70" width="120" height="80" as="geometry"/>
                  </mxCell>
                <mxCell id="OtZh_rt4SisW76x3UQaW-4" style="edgeStyle=orthogonalEdgeStyle;rounded=0;orthogonalLoop=1;jettySize=auto;html=1;exitX=0.5;exitY=1;exitDx=0;exitDy=0;entryX=0.5;entryY=0;entryDx=0;entryDy=0;" edge="1" parent="ZRub3j6lRQqntSZlmvJg-1" source="OtZh_rt4SisW76x3UQaW-1" target="OtZh_rt4SisW76x3UQaW-3">
                    <mxGeometry relative="1" as="geometry"/>
                  </mxCell>
                <mxCell id="OtZh_rt4SisW76x3UQaW-1" value="&lt;div&gt;Ввод&lt;br&gt;&lt;/div&gt;&lt;div&gt;a, b : char&lt;br&gt;&lt;/div&gt;" style="shape=parallelogram;perimeter=parallelogramPerimeter;whiteSpace=wrap;html=1;" vertex="1" parent="ZRub3j6lRQqntSZlmvJg-1">
                    <mxGeometry x="353" y="180" width="120" height="60" as="geometry"/>
                  </mxCell>
                <mxCell id="OtZh_rt4SisW76x3UQaW-7" style="edgeStyle=orthogonalEdgeStyle;rounded=0;orthogonalLoop=1;jettySize=auto;html=1;exitX=0.5;exitY=1;exitDx=0;exitDy=0;entryX=0.5;entryY=0;entryDx=0;entryDy=0;" edge="1" parent="ZRub3j6lRQqntSZlmvJg-1" source="OtZh_rt4SisW76x3UQaW-3" target="OtZh_rt4SisW76x3UQaW-5">
                    <mxGeometry relative="1" as="geometry"/>
                  </mxCell>
                <mxCell id="OtZh_rt4SisW76x3UQaW-3" value="&lt;div&gt;index_a&lt;/div&gt;&lt;div&gt;index_b&lt;/div&gt;&lt;div&gt;chars_between&lt;br&gt;&lt;/div&gt;" style="rounded=0;whiteSpace=wrap;html=1;" vertex="1" parent="ZRub3j6lRQqntSZlmvJg-1">
                    <mxGeometry x="353" y="280" width="120" height="60" as="geometry"/>
                  </mxCell>
                <mxCell id="OtZh_rt4SisW76x3UQaW-9" style="edgeStyle=orthogonalEdgeStyle;rounded=0;orthogonalLoop=1;jettySize=auto;html=1;exitX=0.5;exitY=1;exitDx=0;exitDy=0;entryX=0.5;entryY=0;entryDx=0;entryDy=0;" edge="1" parent="ZRub3j6lRQqntSZlmvJg-1" source="OtZh_rt4SisW76x3UQaW-5" target="OtZh_rt4SisW76x3UQaW-8">
                    <mxGeometry relative="1" as="geometry"/>
                  </mxCell>
                <mxCell id="OtZh_rt4SisW76x3UQaW-5" value="&lt;div&gt;Вывод&lt;br&gt;&lt;/div&gt;&lt;div&gt;&lt;br&gt;&lt;/div&gt;&lt;div&gt;index_a&lt;/div&gt;&lt;div&gt;index_b&lt;/div&gt;&lt;div&gt;chars_between&lt;br&gt;&lt;/div&gt;" style="shape=parallelogram;perimeter=parallelogramPerimeter;whiteSpace=wrap;html=1;" vertex="1" parent="ZRub3j6lRQqntSZlmvJg-1">
                    <mxGeometry x="330" y="360" width="157" height="90" as="geometry"/>
                  </mxCell>
                <mxCell id="OtZh_rt4SisW76x3UQaW-8" value="Конец" style="ellipse;whiteSpace=wrap;html=1;" vertex="1" parent="ZRub3j6lRQqntSZlmvJg-1">
                    <mxGeometry x="353" y="500" width="120" height="80" as="geometry"/>
                  </mxCell>
              </root>
          </mxGraphModel>
      </diagram>
  <diagram id="HStZHHOvbUFYsSRBIDqG" name="les_1_task5">
        <mxGraphModel dx="1422" dy="769" grid="1" gridSize="10" guides="1" tooltips="1" connect="1" arrows="1" fold="1" page="1" pageScale="1" pageWidth="826" pageHeight="1169" math="0" shadow="0">
            <root>
                <mxCell id="PqSGKzBPHs1a9G1K0JVB-0"/>
                <mxCell id="PqSGKzBPHs1a9G1K0JVB-1" parent="PqSGKzBPHs1a9G1K0JVB-0"/>
                <mxCell id="PqSGKzBPHs1a9G1K0JVB-4" style="edgeStyle=orthogonalEdgeStyle;rounded=0;orthogonalLoop=1;jettySize=auto;html=1;entryX=0.5;entryY=0;entryDx=0;entryDy=0;" edge="1" parent="PqSGKzBPHs1a9G1K0JVB-1" source="PqSGKzBPHs1a9G1K0JVB-2" target="PqSGKzBPHs1a9G1K0JVB-3">
                    <mxGeometry relative="1" as="geometry"/>
                  </mxCell>
                <mxCell id="PqSGKzBPHs1a9G1K0JVB-2" value="Начало" style="ellipse;whiteSpace=wrap;html=1;" vertex="1" parent="PqSGKzBPHs1a9G1K0JVB-1">
                    <mxGeometry x="353" y="90" width="120" height="80" as="geometry"/>
                  </mxCell>
                <mxCell id="PqSGKzBPHs1a9G1K0JVB-8" style="edgeStyle=orthogonalEdgeStyle;rounded=0;orthogonalLoop=1;jettySize=auto;html=1;exitX=0.5;exitY=1;exitDx=0;exitDy=0;" edge="1" parent="PqSGKzBPHs1a9G1K0JVB-1" source="PqSGKzBPHs1a9G1K0JVB-3" target="PqSGKzBPHs1a9G1K0JVB-6">
                    <mxGeometry relative="1" as="geometry"/>
                  </mxCell>
                <mxCell id="PqSGKzBPHs1a9G1K0JVB-3" value="&lt;div&gt;Ввод&lt;/div&gt;&lt;div&gt;char_num&lt;br&gt;&lt;/div&gt;" style="shape=parallelogram;perimeter=parallelogramPerimeter;whiteSpace=wrap;html=1;" vertex="1" parent="PqSGKzBPHs1a9G1K0JVB-1">
                    <mxGeometry x="353" y="210" width="120" height="60" as="geometry"/>
                  </mxCell>
                <mxCell id="PqSGKzBPHs1a9G1K0JVB-11" style="edgeStyle=orthogonalEdgeStyle;rounded=0;orthogonalLoop=1;jettySize=auto;html=1;exitX=0.5;exitY=1;exitDx=0;exitDy=0;entryX=0.5;entryY=0;entryDx=0;entryDy=0;" edge="1" parent="PqSGKzBPHs1a9G1K0JVB-1" source="PqSGKzBPHs1a9G1K0JVB-6" target="PqSGKzBPHs1a9G1K0JVB-10">
                    <mxGeometry relative="1" as="geometry"/>
                  </mxCell>
                <mxCell id="PqSGKzBPHs1a9G1K0JVB-6" value="char = alpha(char_num)" style="rounded=0;whiteSpace=wrap;html=1;" vertex="1" parent="PqSGKzBPHs1a9G1K0JVB-1">
                    <mxGeometry x="353" y="300" width="120" height="60" as="geometry"/>
                  </mxCell>
                <mxCell id="PqSGKzBPHs1a9G1K0JVB-13" style="edgeStyle=orthogonalEdgeStyle;rounded=0;orthogonalLoop=1;jettySize=auto;html=1;exitX=0.5;exitY=1;exitDx=0;exitDy=0;entryX=0.5;entryY=0;entryDx=0;entryDy=0;" edge="1" parent="PqSGKzBPHs1a9G1K0JVB-1" source="PqSGKzBPHs1a9G1K0JVB-10" target="PqSGKzBPHs1a9G1K0JVB-12">
                    <mxGeometry relative="1" as="geometry"/>
                  </mxCell>
                <mxCell id="PqSGKzBPHs1a9G1K0JVB-10" value="&lt;div&gt;Вывод&lt;/div&gt;&lt;div&gt;char&lt;br&gt;&lt;/div&gt;" style="shape=parallelogram;perimeter=parallelogramPerimeter;whiteSpace=wrap;html=1;" vertex="1" parent="PqSGKzBPHs1a9G1K0JVB-1">
                    <mxGeometry x="353" y="400" width="120" height="60" as="geometry"/>
                  </mxCell>
                <mxCell id="PqSGKzBPHs1a9G1K0JVB-12" value="Конец" style="ellipse;whiteSpace=wrap;html=1;" vertex="1" parent="PqSGKzBPHs1a9G1K0JVB-1">
                    <mxGeometry x="353" y="510" width="120" height="80" as="geometry"/>
                  </mxCell>
              </root>
          </mxGraphModel>
      </diagram>
</mxfile>
